# xmcd
#
# Track frame offsets: 
#        150
#        19690
#        32530
#        47499
#        65895
#        82548
#        100426
#        124326
#        144036
#        160658
#        183077
#        198973
#
# Disc length: 2858 seconds
#
# Revision: 2
# Processed by: cddbd v1.5.2PL0 Copyright (c) Steve Scherf et al.
# Submitted via: ExactAudioCopy v1.0b3
#
DISCID=8d0b280c
DTITLE=Randy Rogers Band - Randy Rogers Band
DYEAR=2008
DGENRE=Texas Country
TTITLE0=Wicked Ways
TTITLE1=Better Than I Ought To Be
TTITLE2=Lonely Too Long
TTITLE3=One Woman
TTITLE4=Never Be That High
TTITLE5=Didn't Know You Could
TTITLE6=In My Arms Instead
TTITLE7=When The Circus Leaves Town
TTITLE8=Buy Myself A Chance
TTITLE9=Break Even
TTITLE10=Let It Go
TTITLE11=This Is Goodbye
EXTD=YEAR: 2008
EXTT0=
EXTT1=
EXTT2=
EXTT3=
EXTT4=
EXTT5=
EXTT6=
EXTT7=
EXTT8=
EXTT9=
EXTT10=
EXTT11=
PLAYORDER=
